<svg xmlns="http://www.w3.org/2000/svg" width="18.153" height="18" viewBox="0 0 18.153 18">
  <g id="linkedin" transform="translate(0 -0.058)">
    <g id="Group_8" data-name="Group 8" transform="translate(0 5.578)">
      <g id="Group_7" data-name="Group 7">
        <rect id="Rectangle_38" data-name="Rectangle 38" width="4.059" height="12.48" fill="#a8a8a8"/>
      </g>
    </g>
    <g id="Group_10" data-name="Group 10" transform="translate(5.673 5.578)">
      <g id="Group_9" data-name="Group 9">
        <path id="Path_10" data-name="Path 10" d="M169.444,160.146c-.043-.014-.084-.028-.129-.041s-.109-.023-.164-.032a3.639,3.639,0,0,0-.728-.074,5.64,5.64,0,0,0-4.362,2.386V160H160v12.48h4.059v-6.807s3.068-4.273,4.362-1.135v7.942h4.058v-8.422A4.048,4.048,0,0,0,169.444,160.146Z" transform="translate(-160 -160)" fill="#a8a8a8"/>
      </g>
    </g>
    <g id="Group_12" data-name="Group 12" transform="translate(0 -0.145)">
      <g id="Group_11" data-name="Group 11" transform="translate(0 0)">
        <circle id="Ellipse_2" data-name="Ellipse 2" cx="2" cy="2" r="2" transform="translate(0 0.204)" fill="#a8a8a8"/>
      </g>
    </g>
  </g>
</svg>
