<svg xmlns="http://www.w3.org/2000/svg" width="19.514" height="19.514" viewBox="0 0 19.514 19.514">
  <path id="twitter" d="M9.757,0a9.757,9.757,0,1,0,9.757,9.757A9.758,9.758,0,0,0,9.757,0Zm4.455,7.607q.006.144.006.289a6.329,6.329,0,0,1-6.372,6.372h0a6.339,6.339,0,0,1-3.433-1.006,4.555,4.555,0,0,0,.534.031,4.494,4.494,0,0,0,2.782-.959A2.242,2.242,0,0,1,5.637,10.78a2.232,2.232,0,0,0,1.011-.038,2.24,2.24,0,0,1-1.8-2.2c0-.01,0-.019,0-.029a2.224,2.224,0,0,0,1.014.28,2.241,2.241,0,0,1-.693-2.99,6.358,6.358,0,0,0,4.616,2.34,2.241,2.241,0,0,1,3.816-2.042,4.492,4.492,0,0,0,1.422-.544A2.248,2.248,0,0,1,14.043,6.8a4.466,4.466,0,0,0,1.286-.353,4.551,4.551,0,0,1-1.117,1.16Zm0,0" fill="#a8a8a8"/>
</svg>
