<svg xmlns="http://www.w3.org/2000/svg" width="24.998" height="18.934" viewBox="0 0 24.998 18.934">
  <g id="youtube" transform="translate(0.001 0)">
    <path id="Path_8" data-name="Path 8" d="M197.97,109.671l-5.523-3.022a1.014,1.014,0,0,0-1.5.89v5.992a1.013,1.013,0,0,0,1.495.893l5.523-2.97a1.014,1.014,0,0,0,.006-1.783Zm-5.559,3.106V108.3l4.128,2.258Zm0,0" transform="translate(-181.624 -101.322)" fill="#a8a8a8"/>
    <path id="Path_9" data-name="Path 9" d="M24.813,4.469V4.457a5.717,5.717,0,0,0-1.1-2.9A4.068,4.068,0,0,0,21.016.293L20.892.278l-.044,0C17.543.033,12.553,0,12.5,0h-.009c-.05,0-5.041.033-8.375.273l-.044,0L3.957.292a3.965,3.965,0,0,0-2.678,1.3A5.991,5.991,0,0,0,.186,4.443l0,.026C.176,4.552,0,6.546,0,8.547v1.871c0,2,.176,3.994.184,4.078v.013a5.661,5.661,0,0,0,1.1,2.866,4.151,4.151,0,0,0,2.784,1.245c.1.012.189.022.249.032l.058.008c1.908.182,7.891.271,8.144.275h.015c.05,0,5.041-.033,8.346-.273l.044,0,.14-.016a3.874,3.874,0,0,0,2.655-1.27,5.99,5.99,0,0,0,1.093-2.849l0-.026c.007-.084.184-2.077.184-4.078V8.547c0-2-.177-3.994-.184-4.078Zm-1.281,5.949c0,1.852-.162,3.759-.177,3.935a4.651,4.651,0,0,1-.719,2.029,2.409,2.409,0,0,1-1.729.8l-.156.018c-3.2.231-8,.267-8.22.268-.248,0-6.143-.094-7.993-.266-.095-.015-.2-.027-.305-.039a2.739,2.739,0,0,1-1.873-.783l-.014-.014a4.22,4.22,0,0,1-.7-2.009c-.012-.132-.178-2.062-.178-3.94V8.547c0-1.85.161-3.755.177-3.934a4.556,4.556,0,0,1,.719-2.03,2.528,2.528,0,0,1,1.765-.836l.119-.014c3.243-.232,8.08-.267,8.254-.268s5.009.036,8.223.268l.129.015a2.623,2.623,0,0,1,1.794.813l.006.006a4.288,4.288,0,0,1,.7,2.038c.011.125.178,2.059.178,3.941Zm0,0" fill="#a8a8a8"/>
  </g>
</svg>
